<?xml version="1.0" standalone="no"?>
<!DOCTYPE svg PUBLIC "-//W3C//DTD SVG 20010904//EN"
 "http://www.w3.org/TR/2001/REC-SVG-20010904/DTD/svg10.dtd">
<svg version="1.0" xmlns="http://www.w3.org/2000/svg"
 width="750.000000pt" height="422.000000pt" viewBox="0 0 750.000000 422.000000"
 preserveAspectRatio="xMidYMid meet">

<g transform="translate(0.000000,422.000000) scale(0.100000,-0.100000)"
fill="#000000" stroke="none">
<path d="M3640 3398 c-30 -11 -102 -24 -159 -29 -158 -14 -210 -53 -377 -276
-49 -65 -119 -151 -157 -191 -89 -95 -117 -156 -129 -281 -4 -53 -15 -159 -23
-236 -8 -77 -16 -198 -17 -270 l-2 -130 47 -130 c26 -71 47 -140 47 -154 0
-13 18 -61 40 -105 22 -45 45 -109 51 -144 9 -50 20 -74 54 -115 23 -29 60
-61 81 -71 22 -10 46 -22 54 -26 8 -4 17 -20 21 -36 8 -41 52 -113 91 -150 18
-17 83 -54 144 -83 157 -73 376 -126 599 -144 186 -16 215 -13 335 33 68 27
92 43 150 100 84 83 98 120 74 201 -13 43 -29 67 -79 116 -56 56 -63 68 -74
123 l-12 61 35 39 c47 53 54 68 86 189 100 383 114 488 84 622 l-16 71 31 32
c51 52 75 134 76 251 0 79 4 105 18 125 23 32 22 77 -4 145 -40 107 -136 181
-249 191 -99 8 -104 10 -172 65 -85 69 -129 93 -223 124 -44 15 -98 35 -120
44 -45 20 -212 62 -235 60 -8 -1 -40 -10 -70 -21z m160 -83 c16 -8 38 -15 48
-15 10 0 31 -10 45 -23 25 -21 27 -29 27 -100 0 -45 -4 -77 -10 -77 -5 0 -10
-15 -10 -34 0 -19 5 -38 10 -41 6 -3 10 -26 10 -51 l0 -44 38 0 c24 0 39 5 40
13 1 6 2 56 4 110 2 53 6 97 10 97 5 0 8 5 8 10 0 5 -5 9 -11 8 -12 -3 -32 52
-23 61 3 3 7 -4 10 -16 6 -22 54 -39 54 -19 0 19 -13 32 -49 49 -44 22 -54 21
-46 -3 3 -11 2 -20 -3 -20 -15 0 -23 31 -12 45 27 32 224 -68 287 -146 39 -47
112 -89 155 -89 22 0 48 -5 59 -11 15 -7 24 -7 33 0 10 8 17 7 26 -4 7 -8 19
-15 26 -15 8 0 14 -4 14 -9 0 -5 9 -11 20 -14 13 -3 18 -10 14 -21 -3 -9 -1
-16 5 -16 6 0 11 -6 11 -14 0 -8 5 -16 11 -18 17 -6 -2 -39 -27 -48 -25 -10
-26 -25 -9 -95 7 -30 7 -30 -36 14 -42 43 -43 44 -27 72 29 50 5 84 -43 59
-17 -10 -19 -7 -19 20 0 22 -5 30 -17 30 -10 1 -36 7 -58 15 -30 11 -41 11
-47 2 -12 -19 -9 -37 5 -37 22 0 46 -24 50 -49 3 -17 13 -28 35 -35 18 -6 32
-15 31 -21 0 -14 -82 -6 -92 8 -6 9 -10 9 -14 0 -2 -7 -10 -13 -17 -13 -8 0
-26 -10 -42 -22 -16 -12 -24 -16 -17 -8 7 8 9 20 3 35 -5 13 -6 25 -4 28 7 7
-25 13 -163 32 -135 20 -202 17 -102 -4 59 -13 67 -17 77 -44 9 -23 9 -34 -1
-46 -6 -8 -7 -12 -2 -9 14 8 128 -11 135 -23 9 -14 46 -6 69 15 25 23 117 32
164 17 39 -13 109 -88 127 -135 14 -37 13 -69 -2 -84 -7 -7 -13 -20 -13 -30 0
-13 -12 -18 -50 -22 -49 -6 -85 -20 -115 -46 -15 -13 -50 -14 -80 -2 -21 9
-127 22 -177 22 -27 0 -47 -5 -55 -15 -16 -20 -48 -32 -48 -19 0 5 11 17 25
26 14 9 23 19 21 22 -3 2 6 25 21 49 25 44 26 47 14 111 -10 52 -10 67 1 73
15 9 38 -7 38 -28 0 -26 39 -90 71 -117 37 -31 44 -29 29 8 -5 15 -10 46 -10
69 -1 38 -2 40 -14 24 -14 -18 -33 -7 -21 13 3 5 1 19 -5 30 -15 27 -104 29
-115 3 -6 -16 -8 -15 -25 7 -11 14 -20 30 -20 35 -2 32 -91 95 -134 95 -14 0
-26 5 -26 10 0 6 -6 10 -12 9 -7 -1 -22 2 -32 6 -13 6 -21 4 -24 -3 -2 -7 -14
-12 -26 -12 -23 0 -96 -60 -96 -78 0 -5 -10 -8 -21 -8 -12 1 -24 -5 -26 -11
-3 -8 4 -13 16 -13 15 0 21 -6 21 -23 0 -19 -5 -24 -27 -24 -28 1 -28 1 -30
75 0 41 -6 79 -12 85 -12 12 -15 85 -5 111 3 9 11 16 18 16 18 0 83 71 91 100
13 47 36 88 52 94 12 5 14 1 10 -14 -8 -32 3 -23 19 16 12 29 17 34 29 24 12
-10 15 -9 15 8 0 31 -23 44 -47 27 -31 -22 -113 -48 -160 -51 -80 -5 -152 -64
-155 -126 -1 -23 -5 -35 -13 -32 -11 5 -40 -44 -31 -53 3 -3 28 1 56 8 37 10
55 20 60 35 11 28 26 38 48 29 14 -5 13 -8 -8 -18 -13 -7 -26 -19 -28 -27 -5
-13 -3 -13 11 -2 14 12 15 11 8 -15 -11 -37 -38 -91 -62 -122 -11 -13 -19 -34
-19 -47 0 -43 -51 -148 -64 -133 -17 20 -23 54 -21 109 l3 65 -24 -40 c-39
-65 -26 -148 29 -190 l26 -19 -50 -13 c-28 -7 -56 -10 -62 -7 -7 3 -3 -2 7
-10 19 -16 37 -20 65 -17 7 2 11 -4 8 -11 -2 -7 -16 -12 -32 -11 -21 2 -25 -1
-17 -9 25 -25 13 -38 -33 -38 -25 0 -56 -7 -70 -16 -21 -14 -26 -14 -54 1 -17
9 -52 16 -76 17 -25 0 -48 4 -51 9 -3 5 -15 9 -28 9 -15 0 -27 9 -35 26 -6 15
-15 24 -19 20 -3 -4 -14 24 -23 61 l-16 68 29 58 c20 39 47 71 81 98 49 39 86
95 101 152 3 13 25 42 48 63 24 21 59 59 79 84 23 29 49 49 72 56 21 6 37 8
37 4 0 -11 54 -19 65 -10 6 5 26 10 45 13 20 2 6 4 -33 5 -50 2 -68 5 -65 15
5 14 33 18 156 22 51 1 95 5 99 9 3 3 1 6 -6 6 -7 0 -10 3 -8 8 9 14 118 12
147 -3z m-224 -126 c4 -8 28 -10 71 -6 40 4 62 3 58 -3 -3 -6 -15 -10 -25 -10
-10 0 -25 -6 -32 -12 -7 -7 -38 -13 -69 -13 l-57 0 14 28 c15 29 28 34 40 16z
m408 -211 c-3 -16 -9 -28 -13 -28 -11 0 -31 85 -20 88 5 2 9 16 10 30 1 22 4
18 15 -18 8 -25 12 -57 8 -72z m-50 86 c3 -8 2 -12 -4 -9 -6 3 -10 10 -10 16
0 14 7 11 14 -7z m-419 -192 c-15 -16 -16 -15 -4 12 7 15 15 23 17 16 3 -7 -3
-19 -13 -28z m387 -6 c20 -7 55 -28 79 -46 116 -93 103 -277 -23 -311 -109
-29 -259 85 -273 207 -4 37 14 106 32 127 32 35 120 46 185 23z m338 -12 c0
-2 -7 -4 -15 -4 -8 0 -15 4 -15 10 0 5 7 7 15 4 8 -4 15 -8 15 -10z m-670 -60
c0 -8 -5 -12 -10 -9 -6 4 -8 11 -5 16 9 14 15 11 15 -7z m-625 -91 c-4 -10
-14 -42 -22 -71 l-14 -53 31 -39 c17 -22 45 -47 61 -57 l29 -17 -42 -38 c-40
-36 -43 -37 -65 -23 -20 13 -23 13 -23 1 0 -8 -3 -21 -6 -30 -4 -10 -1 -16 8
-16 8 0 25 -11 38 -25 23 -25 23 -25 2 -25 -12 0 -23 8 -27 20 -8 25 -25 26
-25 2 0 -20 33 -56 42 -47 3 3 8 -36 12 -87 4 -51 11 -95 17 -99 6 -3 7 -29 3
-62 -5 -45 -9 -55 -20 -46 -10 8 -13 2 -16 -32 -4 -51 -23 -62 -39 -22 -14 34
-21 141 -10 148 5 2 6 16 3 30 -2 14 0 25 6 25 12 0 28 -40 38 -95 l7 -40 10
33 c7 23 7 39 -1 55 -6 12 -13 40 -16 62 -7 63 -22 123 -34 138 -21 25 -14
178 14 362 4 22 14 45 23 52 22 17 24 16 16 -4z m419 -304 c-8 -13 -23 16 -30
56 -3 14 3 10 17 -12 11 -18 17 -38 13 -44z m-256 49 c7 -7 12 -21 12 -31 0
-17 -2 -17 -20 6 -11 14 -20 28 -20 31 0 10 15 7 28 -6z m1261 -15 c2 -2 -3
-3 -11 -3 -9 0 -19 7 -22 16 -6 15 -4 15 11 3 10 -7 20 -15 22 -16z m48 -9
c-3 -3 -12 -4 -19 -1 -8 3 -5 6 6 6 11 1 17 -2 13 -5z m-1357 -56 c0 -4 -5 -8
-11 -8 -6 0 -9 -7 -5 -15 3 -8 1 -15 -4 -15 -6 0 -13 -1 -17 -2 -4 -2 -10 13
-14 33 -5 36 -5 36 23 25 15 -6 28 -14 28 -18z m701 10 c12 -19 -21 -49 -50
-46 -26 3 -55 43 -44 61 8 13 84 1 94 -15z m709 -29 c13 -24 8 -34 -15 -26
-16 7 -21 47 -5 47 5 0 14 -9 20 -21z m-1590 -82 c0 -24 -3 -28 -10 -17 -13
20 -13 63 0 55 6 -3 10 -21 10 -38z m1452 -15 c22 -22 22 -22 2 -22 -12 0 -29
9 -39 20 -17 19 -41 28 -31 12 2 -4 -11 -6 -30 -4 -59 7 -47 20 16 18 47 -1
65 -6 82 -24z m-1182 -52 c-8 -5 -19 -10 -25 -10 -5 0 -3 5 5 10 8 5 20 10 25
10 6 0 3 -5 -5 -10z m-269 -37 c-8 -15 -10 -15 -11 -2 0 17 10 32 18 25 2 -3
-1 -13 -7 -23z m212 -23 c-3 -11 -10 -23 -16 -27 -5 -3 -8 -2 -5 3 3 5 8 17
11 27 9 24 16 22 10 -3z m1135 8 c9 -9 12 -9 12 1 0 10 10 12 36 8 40 -7 74
-36 74 -63 0 -16 -1 -16 -18 -1 -15 13 -43 18 -128 20 -97 3 -111 1 -131 -17
l-23 -19 0 22 c0 12 8 24 18 27 9 3 25 10 35 15 10 6 27 7 37 4 10 -3 21 -1
25 5 8 14 48 13 63 -2z m-1048 -62 c0 -14 -4 -28 -10 -31 -5 -3 -10 -20 -10
-37 0 -17 -3 -29 -6 -26 -9 9 7 118 17 118 5 0 9 -11 9 -24z m-70 -93 c11 -25
18 -48 15 -51 -2 -3 -9 7 -15 22 -5 14 -14 37 -20 51 -17 44 -2 27 20 -22z
m1268 -29 c4 -28 -33 -34 -103 -19 -32 7 -65 7 -91 2 -30 -7 -55 -5 -97 7 -31
9 -57 21 -57 26 0 5 75 8 173 7 167 -2 172 -3 175 -23z m-1198 -19 c0 -5 -5
-3 -10 5 -5 8 -10 20 -10 25 0 6 5 3 10 -5 5 -8 10 -19 10 -25z m5 -63 c-7 -7
-45 29 -45 41 0 6 11 0 25 -13 14 -13 23 -26 20 -28z m-125 -187 c29 -30 31
-35 14 -35 -11 0 -27 13 -37 29 -30 52 -23 54 23 6z m1400 -551 c16 -41 -18
-115 -48 -107 -13 3 -18 18 -20 66 -8 137 -8 137 29 96 17 -19 35 -44 39 -55z"/>
<path d="M3540 3280 c0 -5 11 -10 24 -10 14 0 28 5 31 10 4 6 -7 10 -24 10
-17 0 -31 -4 -31 -10z"/>
<path d="M3850 3275 c0 -8 7 -15 15 -15 9 0 12 6 9 15 -4 8 -10 15 -15 15 -5
0 -9 -7 -9 -15z"/>
<path d="M3884 3199 c-3 -6 -1 -16 5 -22 8 -8 11 -5 11 11 0 24 -5 28 -16 11z"/>
<path d="M3326 3174 c-26 -39 -14 -44 17 -7 20 23 24 33 14 33 -8 0 -22 -12
-31 -26z"/>
<path d="M3818 3127 c-26 -63 -38 -154 -22 -170 14 -13 31 20 27 50 -3 18 2
56 12 86 9 30 15 65 13 78 -2 18 -9 7 -30 -44z"/>
<path d="M3882 3123 c-17 -58 -16 -193 2 -193 11 0 11 10 4 53 -7 37 -6 67 2
103 15 63 9 92 -8 37z"/>
<path d="M3343 3108 c-21 -46 -28 -129 -12 -139 11 -6 11 -11 1 -21 -6 -6 -12
-19 -12 -27 1 -13 4 -12 16 4 9 13 12 30 8 48 -3 16 -1 48 6 72 6 23 10 53 8
66 l-3 23 -12 -26z"/>
<path d="M3287 3090 c-3 -11 -1 -20 4 -20 5 0 9 9 9 20 0 11 -2 20 -4 20 -2 0
-6 -9 -9 -20z"/>
<path d="M3276 3023 c-6 -14 -5 -15 5 -6 7 7 10 15 7 18 -3 3 -9 -2 -12 -12z"/>
<path d="M4090 3021 c0 -25 6 -27 13 -6 4 8 2 17 -3 20 -6 4 -10 -3 -10 -14z"/>
<path d="M3493 3010 c-12 -11 -26 -20 -32 -20 -5 0 -12 -6 -15 -12 -5 -10 -7
-10 -12 0 -3 6 -10 12 -15 12 -6 0 -7 -5 -4 -11 4 -6 -2 -13 -14 -16 -13 -3
-36 -35 -66 -94 -47 -92 -50 -99 -37 -99 4 0 20 26 34 58 15 31 43 73 63 92
l37 35 -7 -56 c-5 -37 -3 -59 4 -63 7 -4 11 1 11 13 0 19 49 120 72 148 19 23
3 34 -19 13z"/>
<path d="M3726 3003 c-4 -13 -12 -23 -17 -23 -12 0 -12 -37 1 -45 6 -3 10 4
10 17 0 13 5 29 11 35 6 6 9 17 7 25 -3 8 -8 5 -12 -9z"/>
<path d="M3217 3003 c-4 -3 -7 -16 -6 -27 0 -19 1 -19 10 3 10 24 8 36 -4 24z"/>
<path d="M4275 2980 c-8 -13 5 -13 25 0 13 8 13 10 -2 10 -9 0 -20 -4 -23 -10z"/>
<path d="M3740 2945 c0 -14 5 -25 10 -25 6 0 10 11 10 25 0 14 -4 25 -10 25
-5 0 -10 -11 -10 -25z"/>
<path d="M3660 2936 c0 -15 18 -31 26 -23 7 7 -7 37 -17 37 -5 0 -9 -6 -9 -14z"/>
<path d="M4171 2928 c-7 -20 -5 -23 21 -26 40 -4 44 2 19 27 -26 26 -30 26
-40 -1z"/>
<path d="M4020 2930 c0 -6 17 -10 37 -10 43 0 39 9 -6 15 -17 2 -31 0 -31 -5z"/>
<path d="M4100 2920 c0 -5 7 -10 16 -10 8 0 12 5 9 10 -3 6 -10 10 -16 10 -5
0 -9 -4 -9 -10z"/>
<path d="M4305 2890 c3 -5 8 -10 11 -10 2 0 4 5 4 10 0 6 -5 10 -11 10 -5 0
-7 -4 -4 -10z"/>
<path d="M3226 2874 c-9 -24 -8 -25 14 -12 23 15 26 28 6 28 -8 0 -17 -7 -20
-16z"/>
<path d="M3289 2873 c-13 -16 -12 -17 4 -4 16 13 21 21 13 21 -2 0 -10 -8 -17
-17z"/>
<path d="M3076 2838 c-8 -13 -17 -36 -21 -53 -6 -29 -5 -28 19 10 24 37 33 65
21 65 -2 0 -11 -10 -19 -22z"/>
<path d="M3186 2818 c-10 -38 -6 -45 9 -18 17 29 18 40 6 40 -5 0 -11 -10 -15
-22z"/>
<path d="M3134 2775 c-27 -48 -41 -112 -30 -142 7 -17 8 -17 18 1 8 14 12 16
19 5 4 -7 11 -11 14 -7 4 3 -3 15 -15 26 -18 16 -20 24 -11 41 25 48 29 58 36
89 9 44 1 40 -31 -13z"/>
<path d="M3236 2778 c-19 -27 -20 -42 -3 -90 14 -40 53 -88 71 -88 6 0 3 5 -6
11 -10 5 -18 18 -18 28 0 10 -7 25 -16 32 -13 11 -15 25 -10 71 3 32 4 58 1
58 -2 0 -11 -10 -19 -22z"/>
<path d="M3318 2764 c-5 -4 -8 -16 -8 -28 0 -14 3 -17 11 -9 6 6 9 19 7 28 -1
9 -6 13 -10 9z"/>
<path d="M4508 2710 c-4 -8 -8 -30 -11 -48 -3 -28 -2 -31 10 -19 9 9 13 28 11
48 -3 21 -6 28 -10 19z"/>
<path d="M3365 2680 c10 -11 20 -20 23 -20 3 0 -3 9 -13 20 -10 11 -20 20 -23
20 -3 0 3 -9 13 -20z"/>
<path d="M4476 2595 c-3 -8 -1 -15 4 -15 6 0 10 7 10 15 0 8 -2 15 -4 15 -2 0
-6 -7 -10 -15z"/>
<path d="M2940 2475 c0 -8 7 -15 16 -15 14 0 14 3 4 15 -7 8 -14 15 -16 15 -2
0 -4 -7 -4 -15z"/>
</g>
</svg>
